<?xml version="1.0" standalone="no"?>
<!DOCTYPE svg PUBLIC "-//W3C//DTD SVG 20010904//EN"
 "http://www.w3.org/TR/2001/REC-SVG-20010904/DTD/svg10.dtd">
<svg version="1.0" xmlns="http://www.w3.org/2000/svg"
 width="60.000000pt" height="26.000000pt" viewBox="0 0 80.000000 26.000000"
 preserveAspectRatio="xMidYMid meet">

<g transform="translate(0.000000,26.000000) scale(0.100000,-0.100000)"
fill="blue" stroke="none">
<path d="M234 246 c-49 -15 -116 -61 -163 -110 -19 -20 -43 -36 -54 -36 -10 0
-17 -3 -15 -7 7 -18 53 -83 58 -83 5 0 51 65 58 83 2 4 -9 7 -25 7 -27 1 -27
2 29 54 58 55 124 86 182 86 30 0 30 -1 -19 -29 -56 -33 -139 -101 -131 -108
3 -3 31 15 63 40 68 53 133 87 165 87 37 0 139 -53 191 -100 26 -23 51 -39 55
-35 9 9 -61 69 -126 107 -29 17 -51 33 -48 35 2 3 28 0 58 -6 57 -13 127 -53
173 -101 l29 -30 -32 0 -32 0 32 -45 c18 -25 35 -45 38 -45 3 0 20 20 38 45
l32 45 -27 0 c-18 0 -44 17 -84 55 -83 79 -118 92 -274 98 -91 4 -142 2 -171
-7z"/>
</g>
</svg>
